<?xml version="1.0" encoding="utf-8"?>
<!-- Generator: Adobe Illustrator 15.0.0, SVG Export Plug-In . SVG Version: 6.00 Build 0)  -->
<!DOCTYPE svg PUBLIC "-//W3C//DTD SVG 1.1//EN" "http://www.w3.org/Graphics/SVG/1.1/DTD/svg11.dtd">
<svg version="1.1" id="Layer_1" xmlns="http://www.w3.org/2000/svg" xmlns:xlink="http://www.w3.org/1999/xlink" x="0px" y="0px"
	 width="1000px" height="848px" viewBox="0 -74 1000 848" enable-background="new 0 -74 1000 848" xml:space="preserve">
<g fill="#2d5d77">
	<path d="M0,245v97l94,8c5.333,20,13,38.333,23,55l-60,74l68,69l74-61c17.333,10.667,35.666,18.333,55,23l8,94h97
		l10-94c19.333-4.667,37.666-12.333,55-23l74,61l68-69l-60-74c10.666-16.667,18.333-35,23-55l94-8v-97l-94-10
		c-4.667-19.333-12.334-37.667-23-55l60-72l-68-70l-74,60c-17.334-10-35.667-17.667-55-23l-10-94h-97l-8,94
		c-19.334,5.333-37.667,13-55,23l-74-60l-68,70l60,72c-10,17.333-17.667,35.667-23,55L0,245z M221,294c0-24.667,8.666-46,26-64
		c17.333-18,38.666-26.667,64-26c25.333,0.667,46.333,9.333,63,26c16.666,16.667,25.333,38,26,64c0.666,26-8,47-26,63
		s-39,24.667-63,26s-45.334-7.333-64-26C228.333,338.333,219.666,317.333,221,294z M539,532l8,72l70-2c5.333,14.667,12,27.667,20,39
		l-37,57l54,45l49-49c13.333,6.667,27,11.333,41,14l14,66l72-8l-2-68c14.666-5.333,27.666-12.667,39-22l57,39l45-54l-49-49
		c6.666-13.333,10.666-27.667,12-43l68-14l-8-70h-68c-5.334-13.333-12.667-25.667-22-37l39-59l-56-45l-47,49
		c-14.667-5.333-29-9.333-43-12l-14-66l-70,6v70c-13.334,5.333-25.667,12-37,20l-59-37l-45,54l49,49c-5.334,13.333-9.334,27-12,41
		L539,532z M570,86l6,51h49c4,10.667,8.666,20,14,28l-26,43l37,33l36-37c8.666,4.667,18.333,7.667,29,9l10,49l48-6v-48
		c10.666-4,20-9.333,28-16l41,27l31-41l-35-35c4-9.333,7.333-19,10-29l47-12l-6-51h-49c-2.667-10-7.334-19-14-27l28-43l-40-33
		l-35,37c-8.667-5.333-18.334-8.667-29-10l-10-49l-49,6v51c-8.667,2.667-17.667,7.333-27,14l-41-28l-31,41l35,35
		c-4,9.333-6.667,19.333-8,30L570,86z M688,100c-2.667-14,0-26,8-36s18.666-16,32-18c13.333-2,24.666,1.333,34,10
		c9.333,8.667,15,19.667,17,33s-1.334,25.333-10,36c-8.667,10.667-19,16.667-31,18h-6c-11.334,0-21.667-4.333-31-13
		C691.666,121.333,687.333,111.333,688,100z M705,551c-2.667-18,2-34.333,14-49s27-22.667,45-24s34,3.667,48,15s21.666,26.333,23,45
		c1.333,18.667-3.334,34.333-14,47c-10.667,12.667-25.334,21-44,25h-7c-17.334,0-32-5.667-44-17S707,567.667,705,551z"/>
</g>
</svg>
